# xmcd
#
# Track frame offsets:
#	150
#	21435
#	36105
#	52315
#	66220
#	81280
#	100475
#	122385
#	143050
#	159847
#	181255
#	195560
#	214897
#	232917
#	251395
#	267545
#	294162
#
# Disc length: 4218 seconds
#
# Revision: 3
# Processed by: cddbd v1.5.2PL0 Copyright (c) Steve Scherf et al.
# Submitted via: audiograbber 1.83.01
#
DISCID=f0107811
DTITLE=Sacco and Mancetti - Greatest Hits (1987 - 1997)
DYEAR=1996
DGENRE=Bluegrass
TTITLE0=Rainbow's end
TTITLE1=Drum of the big indian
TTITLE2=Wide country
TTITLE3=She starts me up
TTITLE4=Lonely
TTITLE5=Smoke signs
TTITLE6=Wild horses
TTITLE7=Summerwind breeze
TTITLE8=Turn around girl
TTITLE9=Heavy load
TTITLE10=Now and everywhere
TTITLE11=Plain to see
TTITLE12=Ten days of rain
TTITLE13=White woman in love
TTITLE14=O yeah
TTITLE15=All the girls went crazy
TTITLE16=Rainbow's end (Anniversary Edit)
EXTD=
EXTT0=
EXTT1=
EXTT2=
EXTT3=
EXTT4=
EXTT5=
EXTT6=
EXTT7=
EXTT8=
EXTT9=
EXTT10=
EXTT11=
EXTT12=
EXTT13=
EXTT14=
EXTT15=
EXTT16=
PLAYORDER=
